# xmcd CD database file
#
# Track frame offsets:
#	150
#	14937
#	31005
#	70417
#	83887
#	98120
#	113115
#	127925
#	141927
#	153737
#	168085
#	182560
#	196235
#	211570
#	226000
#	237670
#	253447
#	265812
#
# Disc length: 3726 seconds
#
# Revision: 0
# Processed by: cddbd v1.4PL0 Copyright (c) Steve Scherf et al.
# Submitted via: CDex 1.50Beta7
#
DISCID=f60e8c12
DTITLE=Benny Goodman - The Great Benny Goodman - Disc 2
DYEAR=1900
DGENRE=Jazz
TTITLE0=Smoke Dreams
TTITLE1=Christopher Columbus
TTITLE2=Sing, Sing, Sing
TTITLE3=Topsy
TTITLE4=King Porter Stomp
TTITLE5=Perfidia
TTITLE6=Flying Home
TTITLE7=Taking a Chance on Love
TTITLE8=Mission To Moscow
TTITLE9=Thanks For the Memory
TTITLE10=Roll 'Em
TTITLE11=What's New
TTITLE12=Goodbye
TTITLE13=Why Don't You Do Right
TTITLE14=Lazy River
TTITLE15=Peckin'
TTITLE16=These Foolish Things Remind Me Of You
TTITLE17=Amapola
EXTD=
EXTT0=
EXTT1=
EXTT2=
EXTT3=
EXTT4=
EXTT5=
EXTT6=
EXTT7=
EXTT8=
EXTT9=
EXTT10=
EXTT11=
EXTT12=
EXTT13=
EXTT14=
EXTT15=
EXTT16=
EXTT17=
PLAYORDER=
